# xmcd CD database file
#
# Track frame offsets:
#	150
#	14353
#	41551
#	51401
#	72834
#	84247
#	100222
#	118354
#	134006
#	155576
#	172404
#	200311
#	225296
#	240062
#	250896
#	286707
#	298868
#
# Disc length: 4339 seconds
#
# Revision: 0
# Processed by: cddbd v1.5.2PL0 Copyright (c) Steve Scherf et al.
# Submitted via: CDex 1.70beta2
#
DISCID=f010f111
DTITLE=岩浪洋三 - ジャズＴＶ＆スクリーン・ギャラリー
DYEAR=2008
DGENRE=Jazz
TTITLE0=オール・オブ・ミー（ＲＡＭＰＯ）
TTITLE1=オーバー・ザ・レインボー（虹の彼方に）（オズの魔法使　他）
TTITLE2=褐色のブルース（墓にツバをかけろ）
TTITLE3=ワーク・ソング（大正製薬「サモン」）
TTITLE4=グリスビーのブルース（現金に手を出すな）
TTITLE5=アズ・タイム・ゴーズ・バイ（カサブランカ）
TTITLE6=アマポーラ（ＪＲ東日本「大人の休日倶楽部」）
TTITLE7=ホワッツ・ニュー（松下電器パナソニック）
TTITLE8=ス・ワンダフル（ビクター「エヴリオ」）
TTITLE9=危険な関係のブルース（危険な関係）
TTITLE10=トゥナイト（ウエスト・サイド物語）
TTITLE11=枯葉（夜の門　他）
TTITLE12=絶望のブルース（死刑台のエレベーター）
TTITLE13=ララバイ・オブ・バードランド（バードランドの子守唄）（サントリー「北杜」）
TTITLE14=ムーン・リヴァー（ティファニーで朝食を）
TTITLE15=ブラジル（キリンビール「淡麗」）
TTITLE16=マイ・フェイヴァリット・シングス（ＪＲ東海）
EXTD=YEAR: 2008
EXTT0=
EXTT1=
EXTT2=
EXTT3=
EXTT4=
EXTT5=
EXTT6=
EXTT7=
EXTT8=
EXTT9=
EXTT10=
EXTT11=
EXTT12=
EXTT13=
EXTT14=
EXTT15=
EXTT16=
PLAYORDER=
